<?xml version="1.0" encoding="UTF-8" standalone="no"?>
<!-- Created with Inkscape (http://www.inkscape.org/) -->
<svg
   xmlns:dc="http://purl.org/dc/elements/1.1/"
   xmlns:cc="http://web.resource.org/cc/"
   xmlns:rdf="http://www.w3.org/1999/02/22-rdf-syntax-ns#"
   xmlns:svg="http://www.w3.org/2000/svg"
   xmlns="http://www.w3.org/2000/svg"
   xmlns:sodipodi="http://sodipodi.sourceforge.net/DTD/sodipodi-0.dtd"
   xmlns:inkscape="http://www.inkscape.org/namespaces/inkscape"
   id="svg2074"
   sodipodi:version="0.32"
   inkscape:version="0.44.1"
   width="160"
   height="400"
   version="1.0"
   sodipodi:docbase="C:\Documents and Settings\Owner\My Documents\Pictures\SVG work"
   sodipodi:docname="Golden Globe icon.svg">
  <metadata
     id="metadata2079">
    <rdf:RDF>
      <cc:Work
         rdf:about="">
        <dc:format>image/svg+xml</dc:format>
        <dc:type
           rdf:resource="http://purl.org/dc/dcmitype/StillImage" />
      </cc:Work>
    </rdf:RDF>
  </metadata>
  <defs
     id="defs2077" />
  <sodipodi:namedview
     inkscape:window-height="844"
     inkscape:window-width="1440"
     inkscape:pageshadow="2"
     inkscape:pageopacity="0.0"
     guidetolerance="10.0"
     gridtolerance="10.0"
     objecttolerance="10.0"
     borderopacity="1.0"
     bordercolor="#666666"
     pagecolor="#ffffff"
     id="base"
     showguides="true"
     inkscape:guide-bbox="true"
     height="400px"
     width="160px"
     inkscape:zoom="1.648855"
     inkscape:cx="79.5"
     inkscape:cy="204.02074"
     inkscape:window-x="-4"
     inkscape:window-y="-4"
     inkscape:current-layer="svg2074" />
  <path
     style="fill:black"
     d="M 119.76271,365.15206 L 140.97444,377.40537 L 140.89624,390.41915 L 19.025561,390.42631 L 19.26288,377.86217 L 40.578432,365.15206 C 40.578432,365.15206 41.02496,199.45359 41.02496,199.45359 C 42.182733,198.37496 46.376697,195.51303 47.867351,194.89558 C 49.454318,194.23823 51.074047,192.44451 51.775367,190.56777 C 52.434122,188.80492 54.739368,185.44232 56.898136,183.09533 C 60.423125,179.263 62.426741,176.86612 62.429856,175.43164 C 62.432971,173.81287 56.821638,170.12835 50.276547,166.30064 C 38.892229,159.64285 35.620655,155.18878 36.144329,147.06042 L 36.44699,142.36259 C 36.44699,142.36259 41.107836,142.24907 46.19699,142.26066 C 54.993975,142.28069 56.684106,142.19683 56.684106,139.77841 C 56.684106,137.55861 57.881068,136.87448 60.296602,134.45895 C 61.663134,133.09242 62.511525,129.58492 62.923415,125.86662 C 63.412703,121.44959 63.436013,118.37277 62.938617,115.73302 C 62.938617,115.73302 61.03681,114.89053 56.195844,112.37346 C 43.237971,105.63597 23.94699,82.797109 23.94699,74.19359 C 23.94699,73.166885 24.997457,70.759893 26.281361,68.84472 C 27.565267,66.929546 29.12295,62.786261 29.74288,59.637421 C 31.215432,52.157817 34.539844,44.549168 38.738839,39.048184 C 40.938747,36.166149 41.934941,33.924511 41.594451,32.622479 C 40.757499,29.421968 45.984009,14.884435 48.584094,13.180794 C 49.822806,12.369159 53.448701,11.231984 56.641643,10.653738 C 80.110833,6.4034371 112.81041,15.168145 123.96321,28.698436 C 125.60429,30.689346 126.94699,32.663841 126.94699,33.086202 C 126.94699,33.508563 128.54689,37.317795 130.50231,41.551161 C 133.39423,47.811952 133.93763,49.958513 133.41449,53.054926 C 132.58438,57.968306 132.66349,79.961607 133.53336,86.102296 C 134.15603,90.497899 133.95122,91.15131 130.7123,95.102296 C 123.35235,104.08032 121.02651,106.11665 118.79773,105.53381 C 117.40631,105.16994 115.49672,105.86698 113.30482,107.53882 C 111.45683,108.94836 107.58282,111.32042 104.69591,112.81008 L 99.44699,115.51855 L 99.153861,122.65683 C 98.849107,130.07823 100.50878,135.37347 103.49928,136.52103 C 104.29552,136.82657 105.31555,138.89054 105.31555,140.2067 C 105.31555,142.55917 105.28881,142.41543 114.43127,142.41543 C 120.14881,142.41543 125.44318,142.28454 125.44318,142.28454 C 125.44318,142.28454 125.00593,152.78036 122.09849,157.19309 C 120.43539,159.71725 116.94922,162.53795 111.87624,165.46404 C 104.26121,169.85639 98.94699,174.22905 98.94699,176.10253 C 98.94699,176.6345 101.19885,179.76472 103.95113,183.05857 C 106.7034,186.35242 109.20227,190.03152 109.50416,191.23435 C 109.80605,192.43718 111.29466,193.9709 112.81218,194.64262 C 114.3297,195.31434 116.55584,196.78116 117.75915,197.90222 L 119.94699,199.9405 M 105.32526,109.86255 C 114.26774,104.62451 114.51685,104.32743 113.14584,100.53595 C 110.88463,94.282688 111.5494,91.608842 116.5056,87.022283 C 120.52853,83.299383 121.02794,82.375548 120.7556,79.160422 C 120.50805,76.237992 119.92238,75.343507 117.7954,74.639354 C 115.60259,73.913409 114.17067,74.384031 109.5195,77.359349 C 102.91132,81.586554 86.742593,89.862585 85.092169,89.862585 C 84.462321,89.862585 83.94699,90.10804 83.94699,90.40804 C 83.94699,91.494147 88.888175,95.863373 90.151534,95.894388 C 92.171053,95.943967 94.94699,98.4154 94.94699,100.16382 C 94.94699,101.03322 95.39699,102.02267 95.94699,102.36259 C 96.496989,102.70251 96.94699,104.90407 96.94699,107.25494 C 96.94699,113.93353 97.879647,114.2238 105.32526,109.86255 z M 125.27692,98.079205 C 130.26745,92.433279 131.581,91.402649 129.20938,89.434381 C 128.38438,88.749692 126.94699,87.052896 126.94699,86.362585 C 126.94699,85.672274 126.30542,84.575022 125.52129,83.924246 C 124.36661,82.965952 123.13095,83.70059 119.02129,87.788678 C 113.75397,93.028344 113.08116,95.003179 115.20226,98.998275 C 118.54077,105.28638 118.93846,105.2501 125.27692,98.079205 z M 64.134937,94.393535 C 91.520101,88.019984 125.11215,67.904068 130.38757,54.719487 C 131.93553,50.850757 131.92662,50.332773 130.24158,46.234652 C 129.25456,43.834138 128.10949,41.868395 127.69699,41.866333 C 127.28449,41.864272 126.94699,40.962585 126.94699,39.862585 C 126.94699,36.71764 125.29376,37.498226 122.08886,42.156388 C 118.03709,48.045435 114.49605,51.636053 107.39603,57.054942 C 97.479623,64.623356 83.103515,72.247529 72.44699,75.589688 C 58.84196,79.856573 56.337691,80.253761 42.698316,80.307956 C 35.136544,80.338002 32.04175,79.096462 28.948316,80.99014 C 31.191647,86.314595 34.56847,90.115163 38.649983,94.591887 C 41.682375,96.776232 56.948074,96.066186 64.134937,94.393535 z M 131.63181,87.158372 C 131.30984,86.637404 131.76375,85.140402 131.24278,85.462377 C 130.72181,85.784353 130.1778,87.427028 130.49978,87.947995 C 130.82175,88.468963 130.93963,89.394169 131.4606,89.072194 C 131.98157,88.750218 131.95379,87.679339 131.63181,87.158372 z M 28.94699,74.362585 C 28.94699,72.987585 28.49699,71.862585 27.94699,71.862585 C 27.39699,71.862585 26.94699,72.987585 26.94699,74.362585 C 26.94699,75.737585 27.39699,76.862585 27.94699,76.862585 C 28.49699,76.862585 28.94699,75.737585 28.94699,74.362585 z M 76.94699,70.979216 C 76.94699,70.493364 76.052408,69.861909 74.95903,69.575985 C 73.865652,69.29006 72.52679,67.887576 71.98378,66.459353 C 71.280674,64.610042 70.269764,63.862585 68.47174,63.862585 C 66.44534,63.862585 65.64208,63.345819 65.94699,61.362585 C 66.276646,59.218387 65.512962,57.804104 64.94699,57.841371 C 64.398178,57.877509 63.94699,59.537585 63.94699,60.362585 C 63.94699,61.403567 62.948892,61.230405 60.575074,61.230405 C 57.644537,61.230405 56.97791,58.696769 56.503281,56.340719 C 55.758074,52.641533 57.396638,50.116278 58.968466,48.830067 C 64.040626,44.679571 72.018649,45.418296 72.641315,47.246864 C 74.218559,51.878721 76.236943,52.126861 74.94699,45.749676 C 74.652226,44.292442 76.172057,42.063077 77.94699,40.362585 C 79.59699,38.781785 80.94699,36.846235 80.94699,36.061364 C 80.94699,33.91501 89.122366,26.950528 91.69699,26.903598 C 94.408182,26.854178 94.756528,24.862585 92.053978,24.862585 C 91.012822,24.862585 89.901945,24.187585 89.585364,23.362585 C 89.128449,22.171885 86.992839,21.860177 79.228375,21.850905 C 71.160635,21.841272 68.074751,22.314622 61.614336,24.552758 C 54.642221,26.968167 53.568799,27.683577 51.844012,31.064438 C 50.733874,33.240488 49.167639,34.866289 48.176665,34.871259 C 46.344668,34.880446 38.94699,41.336053 38.94699,42.925563 C 38.94699,43.440925 39.621989,43.862585 40.44699,43.862585 C 41.27199,43.862585 41.94699,44.678062 41.94699,45.674756 C 41.94699,46.671449 42.846989,49.349712 43.94699,51.626449 C 45.04699,53.903187 45.955101,56.12521 45.965016,56.564279 C 46.016979,58.865564 53.96884,63.722134 59.495451,64.827943 C 67.336294,66.396803 70.724908,67.905345 71.293663,70.080268 C 71.76997,71.901667 76.94699,72.724877 76.94699,70.979216 z M 122.91181,36.928326 C 124.60555,33.763539 124.13216,32.11442 120.48219,28.464453 C 114.08331,22.065573 105.18719,17.711391 92.94699,14.987419 C 90.47199,14.436626 86.335221,13.508213 83.75417,12.92428 C 74.387287,10.805133 54.159756,12.15218 50.19699,15.159011 C 48.21126,16.665725 48.738501,17.862585 51.387973,17.862585 C 54.119237,17.862585 55.541185,19.486599 55.109173,22.112585 C 54.799905,23.992476 57.780371,24.578534 59.496989,22.975375 C 60.942453,21.62545 73.064075,18.861834 77.510879,18.868377 C 90.856882,18.888016 105.35063,24.441587 114.32743,32.975381 C 117.69319,36.175035 120.76866,38.808605 121.16181,38.827759 C 121.55496,38.846913 122.34246,37.992169 122.91181,36.928326 z M 48.746052,31.604701 C 50.834017,29.088857 52.723571,22.039166 51.608747,20.924342 C 49.079154,18.394749 47.057277,19.836931 45.294859,25.427964 C 43.773884,30.253052 43.733832,31.115627 44.993758,31.912651 C 46.933543,33.139751 47.511435,33.092323 48.746052,31.604701 z "
     id="path2083"
     sodipodi:nodetypes="cccccccssszsccssssssssssssssssssssscccssssssssssccccsssssssssssccsssssccssssssssccccsssccsssccsssssssssssssssssssssssssssccssssssssssccsss" />
</svg>
